<?xml version="1.0" encoding="UTF-8" standalone="no"?>
<svg id="svg2" xmlns:rdf="http://www.w3.org/1999/02/22-rdf-syntax-ns#" xmlns="http://www.w3.org/2000/svg" height="1005pt" width="404pt" version="1.1" xmlns:cc="http://creativecommons.org/ns#" xmlns:dc="http://purl.org/dc/elements/1.1/" viewBox="0 0 404 1005">
<path id="path4" d="m21.97 0h1.78c6.65 1.56 11.68 6.92 14.18 13.12 10.81 24.14 15.92 50.3 22.66 75.72 93.46-4.52 186.98-9.98 280.45-14.33 5.65-5.18 14.34-4.47 4.93 0.48 10.12-3.36 9.01 5.92-0.48 1.12-10.83 11.67-33.53 19.11-31.44 37.7-3.2 8.11-12.51 10.43-19.97 13.17 5.21-6.6 15.76-9.83 16.42-19.37-73.71 62.46-144.84 128.52-217.74 192.14-1.52 4.03 4.5 1.42 6.42 0.61 49.05-38.63 90.52-85.96 138.68-125.55-19.56 23.06-42.58 42.9-62.69 65.42 53.67-47.52 108.19-94.33 164.78-138.32-71.25 72.75-143.74 144.46-216.65 215.47 41.35 161.57 74.25 325.34 98.43 490.39 44.26-10.27 91.38 2.05 133.13 18.38 20.53 9.06 43.04 22.5 49.14 45.67v17.44c1.61-27.31-22.52-45.17-45.47-53.78-40.03-14.57-83.95-23.59-126.43-17.26-7.96 29.62 9.15 65.29-7.94 93.83-11.24 14.32-33.46 7.73-43.88-4.36-16.7-19.03-21.04-44.88-28.82-68.17-9.77-3.93-9.1 8.87-1.04 8.21 6.19 1.11-4.92 0.12-3.08 4.1 8.76 26.48 16.59 58.54 43.84 71.96 15.18 8.06 35.88 2.04 42.43-14.21 9.23-23.85 4.39-50.11 5.38-74.95-3.9-4.01 1.89-6.97 5.32-8.33 16.31 1.41 32.8 1.91 48.91 5.14-16.31 1.26-32.67-2.7-49-0.07-1.54 28.64 6.73 60.71-9.01 86.83-13.93 21.37-46.72 17.3-62.49 0.08-18.53-17.75-24.39-43.4-34.14-66.08-20.61 5.6-40.89 15.87-56.9 30.39-8.86 7.38-12.24 22.2-3.04 30.79 13.27 12 31.47 16.6 48.47 20.49 58.65 12.06 119.91 11.43 178.08-2.91-62.13 22.04-131.32 23.77-195 6.91-21.21-5.73-51.8-19.05-44.85-46.34 10.98-26.35 39.55-39.09 65.01-48.04 4.75-4.65 16.1 0.59 10.51-9.34 6.17 4.51 13.09 5.47 7.43-2.75-36.86 3.63-77.96 20.24-96.92 53.93-14.26 32.64 14.64 62.51 43.36 72.92 78.13 32.41 167.82 22.9 243.99-10.56 25.35-10.49 53.58-23.56 65.28-50.23v2.75c-4.97 19.43-18.92 35.33-34.62 47.18-47.53 34.63-105.3 53.91-163.83 57.61h-16.12c-39.16-2.2-78.67-10.5-113.61-28.81-23.86-12.96-46.3-34.55-49.33-62.83-4.38-25.94 9.53-51.68 29.82-67.06 27.71-21.02 61.58-34.36 96.41-36.39-40.97-261.64-94.53-521.11-152.72-779.42v-9.13c1.7-11.31 10.8-19.69 21.97-21.36m-1.48 13.3c-5.85 0.93-11.31 11.95-2.73 12.91-1.78-8.07 7.29 3.36 10.45-0.68 3.84 25.09 12.26 49.24 16.77 74.21 2.37-0.66 4.7-1.55 6.84-2.79-6.84-26.17-13.35-52.62-24.23-77.47-1.81-2.52-3-8.09-7.1-6.18m-7.62 12.78c6.1 28.55 14.08 56.7 21.01 85.05 9.81-6.8 0.73-18.85-0.29-27.72-7.14-18.53-9.1-41.54-20.72-57.33m5.35 0.72c10.04 24.46 14.89 52.33 22.75 76.04-5.76-24.83-11.3-49.77-17.28-74.55-1.75-0.72-3.61-1.15-5.47-1.49m313.46 50.71c-47.84 3.89-95.64 8.61-143.54 11.56 1.8 3.88 13.76-1.93 15.76 1.83-51.47 4.71-103.42 7.24-154.44 15.44 88-4.12 176.03-15.83 264.31-18.42-8.91 3.21-23.96 1.35-33.76 3.97 10.21 1.94 21.74 0.6 30.83 5.67 3.12-3.29 11.75-6.82 11.15-9.71-12.87-1.51 2.62 0.65 5.77-3.1 3.84-3.11 16.77-10.24 3.92-7.24m-37.08 21.96c-79.51 6.41-159.37 16.51-238.27 24.58-0.51 22.54 5.49 47.45 11.72 69.05-2.24-21.36-3.39-42.84-5.9-64.17 72.97 4.05 144.56-17.29 217.25-13.57 6.77-2.35 13.04-11.97 20.13-9.06 11.41-4.5 1.41-9.72-4.93-6.83m-221.13 7.92c-8.76 0.82-17.55 2.08-26.3 0.48 0.47 2.34 1.23 6.35 4.56 4.93 10.1-4.2 22.71-3.27 32.22-5.9-2.62 0.13-7.86 0.37-10.48 0.49m-31.04 5.84c-2.72 4.11-4.15 9.28-3.26 14.2 11.64 53.84 25.2 107.32 37.58 160.95-2.24-58.46-21.66-119.78-34.32-175.15m224.11 9.18c-55.96 19.92-114.42 36.82-174.6 28.82-1.56 35.33-0.92 71.07 3.61 106.13 13.74-10.73-2.1-30.3 3.28-43.37 3.23 10.2 4.18 22.1 5.99 31.68 16.07-15.43 32.13-34.18 52.23-45.56-13.62 19.71-33.86 33.8-51.01 50.33-1.78 2.49-1.01 5.53-0.61 8.3 54.93-44.66 104.37-96.2 162.95-136.24 0.34-0.65-0.28-0.68-1.84-0.09m-165.13 131.75c-3.56 2.82-8.37 6.71-5.46 11.61 4.95-0.93 11.48-8.28 5.46-11.61m-23.39 35.17c-4.3 9.39 9.12 3.74 0 0m19.25 20.86c-1.29 0.48-2.85 0.97-2 2.66 24.94 110.93 50.68 221.73 72.43 333.33-0.12 2.53 4.16 6.23 0.85-1.5-20.81-111.03-44.96-221.41-69.5-331.67-0.59-0.79-0.3-3.79-1.78-2.82m-8.05 5.4c-2.57 4.33 3.74 1.89 0 0m2 9c-2.57 4.33 3.74 1.89 0 0m1 5c-2.57 4.33 3.74 1.89 0 0m2 9c-2.57 4.33 3.74 1.89 0 0m0.63 4.17c-0.16 11.57 4.59 6.64 0 0m2.37 9.83c-2.57 4.33 3.74 1.89 0 0m0.63 4.17c-0.16 11.57 4.59 6.64 0 0m2.37 9.83c-2.57 4.33 3.74 1.89 0 0m1 5c-2.57 4.33 3.74 1.89 0 0m0.63 4.17c-0.16 11.57 4.59 6.64 0 0m2.37 9.83c-2.57 4.33 3.74 1.89 0 0m1 5c-2.57 4.33 3.74 1.89 0 0m2 9c-2.57 4.33 3.74 1.89 0 0m39 245c-2.57 4.33 3.74 1.88 0 0m0.67 4.51c11.81 69.14 23.11 139 40.38 206.75-0.02-14.02-6.26-32.24-7.36-47.86 6.56 13.79 5.19 34.29 13.28 46.99-15.05-68.45-30.25-138.5-46.3-205.88m22.33 1.49c-2.57 4.33 3.74 1.88 0 0m1 5c-2.57 4.33 3.74 1.88 0 0m1.06 4.97c-2.61 5.37 3.48 3.26 0 0m0.94 6.03c-2.57 4.32 3.74 1.88 0 0m1 5c-2.57 4.32 3.74 1.88 0 0m1 5c-2.57 4.32 3.74 1.88 0 0m26.62 179.57c0.16 2.64 1.23 11.37 2.44 5.09 4.67-0.29 0.41 8.55 3.53 10.77 3.63-5.6 1.57-15.03-5.97-15.86m-16.93 2.15c1.11 7.65 0.55 20.25 9.87 22.95-3.68-7.07-5.79-17.42-9.87-22.95m9.99 4.8c-0.98 7.77 5.47 2.44 0 0m8.23 7.4c-13.02 4.78 3.81 14.04 0 0z"/>
</svg>
